<svg xmlns="http://www.w3.org/2000/svg" shape-rendering="geometricPrecision" text-rendering="geometricPrecision" image-rendering="optimizeQuality" fill-rule="evenodd" clip-rule="evenodd" viewBox="0 0 512 478.17">
    <path fill-rule="nonzero" d="M98.24 478.17h315.52c54.07 0 98.24-44.17 98.24-98.23V98.23C512 44.18 467.82 0 413.76 0H98.24C44.17 0 0 44.17 0 98.23v281.71c0 53.95 44.29 98.23 98.24 98.23zm147.58-300.72-79.18 83.7c-5.31 5.62-5.07 14.49.55 19.81 2.71 2.57 6.18 3.84 9.63 3.84v.07h158.36c7.78 0 14.09-6.31 14.09-14.09 0-4.27-1.91-8.1-4.92-10.69l-78.17-82.64c-5.31-5.62-14.19-5.87-19.81-.55l-.55.55zm167.94 255.63H98.24c-29.31 0-53.15-23.84-53.15-53.14V98.23c0-29.18 23.97-53.14 53.15-53.14h315.52c29.17 0 53.15 23.98 53.15 53.14v281.71c0 29.18-23.97 53.14-53.15 53.14z"/>
</svg>
