<svg width="26" height="25" viewBox="0 0 26 25" fill="none" xmlns="http://www.w3.org/2000/svg">
    <path
        d="M12.1732 21.1838C12.6817 20.8769 13.3183 20.8769 13.8268 21.1838L19.0567 24.3404C20.2684 25.0717 21.7632 23.9853 21.4416 22.607L20.0536 16.6584C19.9186 16.08 20.1152 15.4744 20.5641 15.0855L25.1869 11.0809C26.2567 10.1541 25.6848 8.39688 24.2745 8.27727L18.1915 7.76136C17.6002 7.71121 17.0852 7.33788 16.8536 6.79148L14.4732 1.17528C13.9218 -0.125526 12.0782 -0.125522 11.5269 1.17529L9.14645 6.79148C8.91486 7.33788 8.39986 7.71121 7.80853 7.76136L1.7256 8.27727C0.315289 8.39688 -0.256595 10.1541 0.813196 11.0809L5.43596 15.0855C5.88489 15.4744 6.08144 16.08 5.94648 16.6584L4.55848 22.607C4.23687 23.9853 5.73168 25.0717 6.94341 24.3404L12.1732 21.1838Z"
        fill="#ED8F39" />
</svg>