<svg xmlns="http://www.w3.org/2000/svg" viewBox="0 0 92.31 122.88" xml:space="preserve">
<path d="m46.16 69.11 3.6 8.8 9.48.7-7.26 6.15L54.24 94l-8.09-5-8.09 5 2.26-9.24-7.26-6.15 9.48-.7 3.62-8.8zm.68-65.51c.32-1.64 1.17-2.69 2.33-3.23.94-.43 2.03-.48 3.17-.18.99.26 2.03.79 3.03 1.55 2.7 2.05 5.23 5.93 5.55 10.77.1 1.49.07 3.08-.07 4.77-.09 1.12-.24 2.29-.43 3.51H71.9l.05.01c1.87.07 3.67.53 5.2 1.33 1.32.69 2.43 1.63 3.2 2.81.79 1.21 1.23 2.65 1.16 4.29-.05 1.22-.37 2.54-1.04 3.96.38 1.59.56 3.29.31 4.79-.21 1.27-.7 2.4-1.59 3.24.05 2.1-.23 3.86-.8 5.39-.58 1.57-1.45 2.87-2.57 4.02-.1 1.01-.26 1.97-.51 2.87-.32 1.13-.78 2.17-1.43 3.08-1.96 2.76-3.52 2.7-6 2.6-.34-.01-.72-.03-1.29-.03H44.12c-2.02 0-3.61-.29-5.06-1.02-1.44-.72-2.66-1.82-3.97-3.46l-.34-.95V27.5l1.14-.31c2.9-.78 5.18-3.26 6.95-6.22 1.82-3.05 3.1-6.62 3.97-9.5V3.89l.03-.29zM13.09 24.77h16.74c1.27 0 2.3 1.04 2.3 2.3v30.61c0 1.27-1.04 2.3-2.3 2.3H13.09c-1.27 0-2.3-1.04-2.3-2.3V27.07a2.3 2.3 0 0 1 2.3-2.3zM50.45 3.15c-.25.11-.45.4-.57.9v7.64l-.07.44c-.93 3.09-2.31 7.01-4.35 10.42-1.92 3.21-4.41 5.96-7.64 7.24v23.38c.89 1.05 1.71 1.77 2.6 2.21.99.49 2.15.69 3.69.69h22.47c.4 0 .92.02 1.41.04 1.47.06 2.4.1 3.39-1.31.43-.61.75-1.33.98-2.14.24-.86.38-1.81.45-2.83l.47-1.01c.99-.94 1.75-1.99 2.23-3.29.49-1.33.71-2.94.59-4.95l-.05-.91.77-.48c.53-.33.82-.95.94-1.71.2-1.21-.01-2.69-.39-4.07l.12-1.11c.62-1.19.92-2.26.96-3.19.04-.97-.21-1.81-.67-2.51-.48-.73-1.19-1.33-2.05-1.78-1.11-.58-2.44-.91-3.84-.97H56.74l.34-1.82c.33-1.76.57-3.43.7-5.02.13-1.56.16-3 .07-4.31-.26-3.87-2.24-6.93-4.35-8.54-.67-.51-1.34-.86-1.95-1.02-.44-.11-.83-.11-1.1.01zM29.62 97.99l3.6 8.8 9.48.7-7.26 6.15 2.26 9.24-8.09-5-8.09 5 2.26-9.24-7.26-6.15 9.48-.7 3.62-8.8zm33.07 0 3.6 8.8 9.48.7-7.26 6.15 2.26 9.24-8.09-5-8.09 5 2.26-9.24-7.26-6.15 9.48-.7 3.62-8.8zm16.53-28.88 3.6 8.8 9.48.7-7.26 6.15L87.31 94l-8.09-5-8.09 5 2.26-9.24-7.26-6.15 9.48-.7 3.61-8.8zm-66.13 0 3.6 8.8 9.48.7-7.26 6.15L21.17 94l-8.09-5L5 94l2.26-9.24L0 78.61l9.48-.7 3.61-8.8z" style="fill-rule:evenodd;clip-rule:evenodd"/>
</svg>
