<svg xmlns="http://www.w3.org/2000/svg" viewBox="0 0 122.88 98.31" xml:space="preserve">
<path d="M8.32 0h106.24c4.58 0 8.32 3.74 8.32 8.32V90c0 4.58-3.74 8.32-8.32 8.32H8.32C3.74 98.31 0 94.57 0 89.99V8.32C0 3.74 3.74 0 8.32 0zm72.03 67.81h3.29v-8.4c0-.16-.07-.31-.18-.42a.599.599 0 0 0-.42-.18H63.46v9h3.28c1.04 0 1.89.85 1.89 1.89v7.55c0 1.04-.85 1.89-1.89 1.89H56.07c-1.04 0-1.89-.85-1.89-1.89V69.7c0-1.04.85-1.89 1.89-1.89h3.28v-9H39.79c-.16 0-.31.07-.42.18-.11.11-.18.26-.18.42v8.4h3.34c1.04 0 1.89.85 1.89 1.89v7.55c0 1.04-.85 1.89-1.89 1.89H31.86c-1.04 0-1.89-.85-1.89-1.89V69.7c0-1.04.85-1.89 1.89-1.89h3.24v-8.4c0-1.29.53-2.46 1.38-3.31.85-.85 2.02-1.37 3.31-1.37h19.58V42.65h-3.28c-1.04 0-1.89-.85-1.89-1.89v-7.55c0-1.04.85-1.89 1.89-1.89h10.67c1.04 0 1.89.85 1.89 1.89v7.55c0 1.04-.85 1.89-1.89 1.89h-3.28v12.07h19.58c1.29 0 2.46.53 3.31 1.37.85.85 1.38 2.02 1.38 3.31v8.4h3.29c1.04 0 1.89.85 1.89 1.89v7.55c0 1.04-.85 1.89-1.89 1.89H80.37c-1.04 0-1.89-.85-1.89-1.89V69.7c-.01-1.04.84-1.89 1.87-1.89zm37.62-44.52H5.29V90.8c0 .64.25 1.2.67 1.63.42.42.99.67 1.63.67h108.04c.64 0 1.2-.25 1.63-.67.43-.43.67-.99.67-1.63V23.29h.04zM106.64 9.35a4.11 4.11 0 1 1-4.11 4.11c.01-2.27 1.85-4.11 4.11-4.11zm-27.84 0a4.11 4.11 0 1 1 0 8.22 4.11 4.11 0 0 1 0-8.22zm13.92 0a4.11 4.11 0 1 1 0 8.22 4.11 4.11 0 0 1 0-8.22z"/>
</svg>
