<svg width="22" height="19" fill="none" xmlns="http://www.w3.org/2000/svg"><g clip-path="url(#a)"><path d="M5.261 17.037c-1.35-.044-2.479-.509-3.386-1.394-.886-.908-1.35-2.037-1.395-3.387.022-1.063.32-1.992.896-2.79A4.838 4.838 0 0 1 3.667 7.74v-.265c.045-1.506.565-2.756 1.561-3.752s2.247-1.517 3.752-1.56c.996.021 1.893.265 2.69.73a5.724 5.724 0 0 1 1.925 1.925c.51-.354 1.096-.53 1.76-.53.907.021 1.66.331 2.258.929.597.597.907 1.35.93 2.258 0 .398-.067.785-.2 1.162.974.199 1.782.686 2.424 1.46.62.753.94 1.65.963 2.69-.022 1.195-.432 2.203-1.229 3.022-.819.796-1.826 1.206-3.021 1.228H5.261zm5.28-2.922c.376.332.741.332 1.095 0l2.657-2.656c.332-.354.332-.72 0-1.096-.355-.31-.72-.31-1.096 0l-1.295 1.295V7.21c-.044-.487-.31-.753-.797-.797-.487.044-.753.31-.797.797v4.45L8.98 10.362c-.354-.31-.72-.31-1.096 0-.31.377-.31.742 0 1.096l2.656 2.656z" fill="#009FE3"/></g><defs><clipPath id="a"><path fill="#fff" transform="matrix(1 0 0 -1 .48 18.4)" d="M0 0h21.25v17.6H0z"/></clipPath></defs></svg>