<svg width="36" height="36" xmlns="http://www.w3.org/2000/svg"><path d="M28.688 0a7.312 7.312 0 0 1 7.313 7.313v21.375A7.312 7.312 0 0 1 28.688 36H7.313A7.312 7.312 0 0 1 0 28.687V7.313A7.312 7.312 0 0 1 7.313 0zM11.373 12.93H5.948v16.32h5.425zm13.318-.383c-2.882 0-4.17 1.586-4.89 2.697V12.93h-5.427c.021.453.03 2.068.032 4.116v2.244l-.003 1.182-.002 1.192c-.008 3.492-.024 6.83-.027 7.474v.112H19.8v-9.114c0-.488.037-.974.18-1.323.392-.976 1.284-1.984 2.783-1.984 1.964 0 2.749 1.496 2.749 3.69v8.731h5.425v-9.358c0-5.013-2.677-7.345-6.247-7.345zM8.697 5.063c-1.857 0-3.071 1.218-3.071 2.819 0 1.567 1.179 2.822 2.998 2.822h.037c1.892 0 3.07-1.255 3.07-2.822-.036-1.601-1.178-2.82-3.034-2.82z" fill="currentColor" fill-rule="evenodd"/></svg>