<svg width="36" height="36" xmlns="http://www.w3.org/2000/svg"><path d="M7.313 0h21.375A7.313 7.313 0 0 1 36 7.313v21.375A7.313 7.313 0 0 1 28.687 36H7.313A7.313 7.313 0 0 1 0 28.687V7.313A7.313 7.313 0 0 1 7.313 0zm19.782 8.438h-3.11l-.084.002c-.375.03-.56.27-.708.529l-6.88 12.22 4.372 8.037c.144.255.36.547.774.584l.086.003h3.074l.06-.003a.435.435 0 0 0 .348-.195.462.462 0 0 0 .02-.419l-.026-.057-4.339-7.94-.003-.01.003-.01 6.815-12.07.025-.055a.465.465 0 0 0-.02-.42.435.435 0 0 0-.348-.195zm-13.041 3.374H11.13l-.057.004c-.15.013-.275.079-.34.197-.07.124-.068.278-.008.436l.024.06 1.975 3.774.002.01-.002.009-3.105 6.045-.022.06a.526.526 0 0 0 .024.435.417.417 0 0 0 .324.217l.057.003h2.92l.08-.003c.358-.034.55-.301.69-.564l3.181-6.213-2.037-3.919c-.135-.254-.337-.516-.708-.547l-.076-.004z" fill="currentColor" fill-rule="evenodd" style="stroke-width:1.49999"/></svg>