<svg width="12" height="16" viewBox="0 0 12 16" xmlns="http://www.w3.org/2000/svg">
    <path fill="#fff" d="M0.782609 15.5H11.2174C11.6496 15.5 12 15.1947 12 14.8182V7.09091C12 6.71436 11.6496 6.40909 11.2174 6.40909H10.4348V4.36364C10.4348 2.23323 8.44534 0.5 6 0.5C3.55466 0.5 1.56522 2.23323 1.56522 4.36364V6.40909H0.782609C0.3504 6.40909 0 6.71436 0 7.09091V14.8182C0 15.1947 0.3504 15.5 0.782609 15.5ZM6.78261 11.1812V12.0909C6.78261 12.4675 6.43221 12.7727 6 12.7727C5.56779 12.7727 5.21739 12.4675 5.21739 12.0909V11.1812C4.9008 10.9737 4.69565 10.6437 4.69565 10.2727C4.69565 9.64614 5.28078 9.13636 6 9.13636C6.71922 9.13636 7.30435 9.64614 7.30435 10.2727C7.30435 10.6437 7.0992 10.9737 6.78261 11.1812ZM3.13043 4.36364C3.13043 2.98514 4.41772 1.86364 6 1.86364C7.58228 1.86364 8.86957 2.98514 8.86957 4.36364V6.40909H3.13043V4.36364Z" />
</svg>
