<svg xmlns="http://www.w3.org/2000/svg" viewBox="0 0 120.98 122.88" style="enable-background:new 0 0 120.98 122.88" xml:space="preserve"><path d="m30.07 65.39-.71 20.73-7.81-5.32-7.81 4.41 1.61-22.22-11.06-1.52v46.58l40.74 4.63V67.05l-14.96-1.66zM97.89 5.95c.42-.08.85 0 1.21.22.61.25 1.04.85 1.05 1.56l.35 47.99 17.89 2.35c.42-.08.85 0 1.21.22.61.25 1.04.85 1.05 1.56l.35 49.19c.03.6-.27 1.2-.82 1.53l-20.09 11.98a1.712 1.712 0 0 1-1.29.32l-52.13-5.8c-.13-.01-.25-.03-.37-.06l-44.67-5.74c-.9-.04-1.61-.79-1.61-1.69V59.55c-.02-.67.36-1.32 1.01-1.6L24.55 47.6V13.24c-.02-.67.36-1.32 1.01-1.6L51.71.14c.27-.12.58-.17.9-.13l45.28 5.94zm.99 52.97L83.16 68.3l15.61 1.99 14.95-9.42-14.84-1.95zm-74.33-3.28V51.3L7.87 58.63l9.57 1.22 7.11-4.21zm55.71-33.81v44.26l15.01-8.96 1.83-1.55-.32-44.16-16.52 10.41zm-4.3 45.35V21.4l-21.33-2.84-.73 21.25-7.81-5.32-7.81 4.41 1.61-22.22-11.96-1.53v46.58l48.03 5.45zM73.35 6.15l-16.4 9.31 21.33 2.72 14.95-9.42-19.88-2.61zm-31.36 7.39 15.9-9.43-5.24-.69-20.23 8.89 9.57 1.23zm58.76 60.4v44.26l16.85-10.05-.33-44.62-16.52 10.41zm-4.3 45.35V73.51l-21.33-2.84-.73 21.25-7.81-5.32-7.81 4.41 1.61-22.22-11.06-1.08v46.58l47.13 5z"/></svg>