<svg width="64" height="56" xmlns="http://www.w3.org/2000/svg">
	<path d="M24.163 56V31.907H11.32c0-2.46.181-4.956.544-7.488.363-2.533 1.052-4.812 2.068-6.838 1.016-2.025 2.322-3.653 3.918-4.883 1.597-1.23 3.628-1.845 6.096-1.845V0c-4.064 0-7.62.868-10.667 2.605a22.252 22.252 0 0 0-7.51 6.945c-1.96 2.894-3.41 6.259-4.354 10.093C.472 23.478 0 27.566 0 31.907V56h24.163zM64 56V31.907H51.156c0-2.46.182-4.956.545-7.488.362-2.533 1.052-4.812 2.068-6.838 1.016-2.025 2.322-3.653 3.918-4.883s3.628-1.845 6.095-1.845V0c-4.063 0-7.619.868-10.666 2.605a22.252 22.252 0 0 0-7.51 6.945c-1.96 2.894-3.411 6.259-4.354 10.093-.944 3.835-1.415 7.923-1.415 12.264V56H64z" fill="#009fe3" fill-rule="nonzero" />
</svg>
