<svg width="24" height="24" viewBox="0 0 124 93">
    <g>
        <path d="M52.5 91a2 2 0 0 1-2 2 2 2 0 0 1-2-2 2 2 0 0 1 2-2 2 2 0 0 1 2 2zM64.5 91a2 2 0 0 1-2 2 2 2 0 0 1-2-2 2 2 0 0 1 2-2 2 2 0 0 1 2 2zM75.5 91a2 2 0 0 1-2 2 2 2 0 0 1-2-2 2 2 0 0 1 2-2 2 2 0 0 1 2 2zM85.947 27.002a1 1 0 0 0-.691.328 1 1 0 0 0 .074 1.414L94.504 37l-9.174 8.256a1 1 0 0 0-.074 1.414 1 1 0 0 0 1.414.074l10-9a1 1 0 0 0 0-1.488l-10-9a1 1 0 0 0-.723-.254z" />
        <path d="M27.303 0C19.713.026 13.526 6.213 13.5 13.803a2 2 0 0 0 0 .008V60.19a2 2 0 0 0 0 .008c.026 7.59 6.213 13.777 13.803 13.803a2 2 0 0 0 .008 0H97.69a2 2 0 0 0 .008 0c7.59-.026 13.777-6.214 13.803-13.803a2 2 0 0 0 0-.008V13.81a2 2 0 0 0 0-.007C111.475 6.213 105.287.026 97.698 0a2 2 0 0 0-.008 0H91a2 2 0 0 0-2 2 2 2 0 0 0 2 2h6.684a9.82 9.82 0 0 1 9.816 9.816v46.367A9.82 9.82 0 0 1 97.684 70H27.317a9.82 9.82 0 0 1-9.816-9.817V13.816A9.82 9.82 0 0 1 27.317 4H71a2 2 0 0 0 2-2 2 2 0 0 0-2-2H27.31a2 2 0 0 0-.007 0zM5 7.5c-2.75 0-5 2.25-5 5v49c0 2.75 2.25 5 5 5a1 1 0 0 0 1-1 1 1 0 0 0-1-1c-1.669 0-3-1.331-3-3v-49c0-1.669 1.331-3 3-3a1 1 0 0 0 1-1 1 1 0 0 0-1-1zM119 7.5a1 1 0 0 0-1 1 1 1 0 0 0 1 1c1.669 0 3 1.331 3 3v49c0 1.669-1.331 3-3 3a1 1 0 0 0-1 1 1 1 0 0 0 1 1c2.75 0 5-2.25 5-5v-49c0-2.75-2.25-5-5-5z" />
        <path d="M39.053 27.002a1 1 0 0 0-.723.254l-10 9a1 1 0 0 0 0 1.488l10 9a1 1 0 0 0 1.414-.074 1 1 0 0 0-.074-1.414L30.496 37l9.174-8.256a1 1 0 0 0 .074-1.414 1 1 0 0 0-.691-.328z" />
    </g>
</svg>
