<svg width="25" height="24" viewBox="0 0 25 24" xmlns="http://www.w3.org/2000/svg">
    <path
        d="M11.416 0.496125C9.16992 0.710968 6.95312 1.62894 5.20508 3.04495C4.69727 3.46487 3.88672 4.28519 3.47656 4.793C2.44141 6.09183 1.5918 7.83987 1.24023 9.41214C1.01563 10.3985 0.966797 10.877 0.966797 12.0098C0.966797 13.1328 1.01563 13.6211 1.24023 14.6075C1.5918 16.209 2.4707 17.9864 3.53516 19.295C3.95508 19.8125 4.77539 20.6231 5.2832 21.0235C6.58203 22.0586 8.33008 22.9082 9.90234 23.2598C10.8887 23.4844 11.3672 23.5332 12.5 23.5332C13.623 23.5332 14.1113 23.4844 15.0977 23.2598C16.2793 22.9961 17.8223 22.3418 18.8281 21.668C20.5859 20.4961 21.9336 18.9629 22.8613 17.0879C23.4277 15.9356 23.75 14.9004 23.9453 13.5918C24.0527 12.8692 24.0527 11.1602 23.9453 10.4375C23.7402 9.12894 23.418 8.09378 22.8613 6.94144C22.2559 5.71097 21.582 4.77347 20.6152 3.81644C19.668 2.86917 18.7891 2.25394 17.5781 1.65823C16.4453 1.10159 15.3906 0.769562 14.1309 0.57425C13.5547 0.486359 12.0117 0.447296 11.416 0.496125ZM12.0508 3.95316V6.45316H11.875C11.5234 6.45316 10.0098 6.31644 9.42383 6.22855C8.58398 6.11136 8.34961 6.05276 8.34961 5.98441C8.34961 5.86722 8.75 4.89066 9.00391 4.37308C9.72656 2.92777 10.6738 1.90237 11.6113 1.56058C12.0996 1.37503 12.0508 1.10159 12.0508 3.95316ZM13.3691 1.56058C14.3164 1.90237 15.2637 2.918 15.9863 4.37308C16.2402 4.89066 16.6406 5.86722 16.6406 5.98441C16.6406 6.12112 15.0977 6.33597 13.4473 6.44339L12.9395 6.47269V3.95316C12.9395 1.78519 12.9492 1.44339 13.0078 1.44339C13.0566 1.44339 13.2129 1.50198 13.3691 1.56058ZM9.30664 2.20511C9.11133 2.44925 8.83789 2.80081 8.71094 3.00589C8.38867 3.50394 7.88086 4.52933 7.62695 5.22269C7.37305 5.90628 7.4707 5.86722 6.63086 5.59378C5.82031 5.33011 4.73633 4.87112 4.73633 4.78323C4.73633 4.72464 5.39062 4.09964 5.80078 3.77737C6.52344 3.19144 7.39258 2.65433 8.17383 2.31253C8.49609 2.17581 9.55078 1.78519 9.62891 1.77542C9.64844 1.76566 9.50195 1.96097 9.30664 2.20511ZM15.8887 1.94144C17.3633 2.44925 18.5352 3.14261 19.6777 4.18753C19.8926 4.38284 20.1172 4.60745 20.166 4.67581C20.2637 4.80276 20.2637 4.80276 20.1758 4.85159C19.7852 5.0762 18.5547 5.56448 17.9102 5.74026L17.5781 5.82816L17.5391 5.7305C17.5195 5.67191 17.4219 5.42776 17.334 5.18362C17.1191 4.59769 16.5625 3.47464 16.2695 3.01566C16.1426 2.82034 15.8691 2.45901 15.6738 2.21487C15.4785 1.9805 15.3223 1.77542 15.332 1.77542C15.3711 1.76566 15.6055 1.84378 15.8887 1.94144ZM5.18555 6.043C5.68359 6.25784 6.55273 6.56058 6.89453 6.6387C7.05078 6.67776 7.12891 6.71683 7.12891 6.75589C7.12891 6.79495 7.08984 6.9805 7.04102 7.16605C6.80664 8.08401 6.62109 9.40237 6.5332 10.6817L6.47461 11.5508H4.18945H1.89453V11.375C1.89453 11.2774 1.92383 10.9649 1.95313 10.6817C2.17773 8.8555 2.90039 7.06839 3.99414 5.62308L4.08203 5.50589L4.42383 5.68167C4.60938 5.77933 4.95117 5.94534 5.18555 6.043ZM21.3672 6.16019C22.0215 7.12698 22.5781 8.45511 22.8516 9.63675C22.9688 10.1739 23.0957 11.0625 23.0957 11.375V11.5508H20.8008H18.5059L18.4473 10.6817C18.3691 9.40237 18.1738 8.08401 17.9395 7.16605C17.8906 6.9805 17.8516 6.79495 17.8516 6.75589C17.8516 6.70706 17.9297 6.668 18.0859 6.6387C18.5254 6.53128 19.7168 6.09183 20.3027 5.80862L20.8887 5.52542L21.0254 5.7012C21.123 5.80862 21.2695 6.0137 21.3672 6.16019ZM8.4375 7.00003C9.11133 7.15628 10.9277 7.35159 11.6504 7.35159H12.041V9.4512V11.5508H9.73633H7.43164L7.46094 10.8282C7.50977 9.7344 7.69531 8.38675 7.94922 7.34183C8.05664 6.90237 8.04688 6.91214 8.4375 7.00003ZM17.0508 7.34183C17.3047 8.38675 17.4902 9.7344 17.5391 10.8282L17.5684 11.5508H15.2637H12.9492V9.4512V7.36136H13.3496C14.0625 7.36136 15.957 7.14651 16.5625 7.0098C16.9336 6.90237 16.9434 6.91214 17.0508 7.34183ZM6.54297 13.3184C6.62109 14.6075 6.81641 15.916 7.05078 16.834C7.09961 17.0196 7.13867 17.2051 7.13867 17.2442C7.13867 17.293 7.06055 17.3321 6.9043 17.3614C6.34766 17.4883 5.08789 17.9766 4.41406 18.3184L4.10156 18.4844L4.01367 18.3672C2.91992 16.9121 2.19727 15.125 1.97266 13.3086C1.93359 13.0254 1.91406 12.7129 1.91406 12.6153V12.4395H4.20898H6.50391L6.54297 13.3184ZM12.0508 14.5489V16.6485H11.6602C10.9277 16.6485 9.11133 16.8535 8.44727 17C8.05664 17.0879 8.06641 17.0977 7.95898 16.6485C7.70508 15.6035 7.51953 14.2559 7.4707 13.1621L7.44141 12.4395H9.74609H12.0605L12.0508 14.5489ZM17.5391 13.1719C17.4902 14.2657 17.3047 15.6133 17.0508 16.6582C16.9434 17.0977 16.9531 17.0977 16.5625 17.0098C15.8887 16.8535 14.0723 16.6582 13.3496 16.6582H12.9492V14.5586V12.459H15.2637H17.5684L17.5391 13.1719ZM23.0957 12.625C23.0957 12.7227 23.0664 13.0352 23.0371 13.3184C22.8125 15.1446 22.0898 16.9317 20.9961 18.377L20.9082 18.4942L20.5664 18.3184C19.8535 17.9668 18.6719 17.5078 18.0957 17.3711C17.9395 17.3321 17.8613 17.293 17.8613 17.2539C17.8613 17.2149 17.9004 17.0293 17.9492 16.8438C18.1836 15.9258 18.3691 14.6075 18.457 13.3282L18.5156 12.459H20.8105H23.1055V12.625H23.0957ZM12.0508 20.0567C12.0508 22.2149 12.041 22.5567 11.9824 22.5567C11.9434 22.5567 11.7871 22.5078 11.6309 22.4492C10.6836 22.1075 9.73633 21.0918 9.01367 19.6367C8.75977 19.1192 8.35937 18.1426 8.35937 18.0254C8.35937 17.9864 8.44727 17.9473 8.59375 17.918C9.0625 17.8203 10.0195 17.6934 10.5859 17.6446C10.9082 17.625 11.25 17.586 11.3574 17.586C11.4551 17.5762 11.6504 17.5664 11.7969 17.5664L12.0508 17.5567V20.0567ZM14.1406 17.6153C15.5078 17.7325 16.6504 17.9082 16.6504 18.0254C16.6504 18.1426 16.25 19.1192 15.9961 19.6367C15.4102 20.7989 14.6777 21.6973 13.9062 22.1953C13.6719 22.3418 13.1445 22.5567 13.0176 22.5567C12.959 22.5567 12.9492 22.2149 12.9492 20.0567V17.5567H13.125C13.2227 17.5567 13.6816 17.586 14.1406 17.6153ZM7.60742 18.7285C7.82227 19.334 8.4082 20.545 8.71094 21.0039C8.83789 21.1992 9.11133 21.5606 9.30664 21.8047C9.50195 22.0489 9.6582 22.2442 9.64844 22.2442C9.63867 22.2442 9.39453 22.166 9.11133 22.0684C7.63672 21.5606 6.46484 20.8672 5.32227 19.8223C5.10742 19.627 4.88281 19.4024 4.83398 19.334C4.73633 19.2071 4.73633 19.2071 4.82422 19.1582C5.36133 18.8457 7.33398 18.1328 7.42188 18.2207C7.42188 18.2403 7.50977 18.4649 7.60742 18.7285ZM18.6523 18.5137C19.3652 18.7578 20.2539 19.1582 20.2539 19.2266C20.2539 19.2852 19.5996 19.9102 19.1895 20.2325C18.1738 21.0625 17.1387 21.6192 15.8789 22.0586C15.5957 22.1563 15.3516 22.2344 15.3418 22.2344C15.332 22.2344 15.4785 22.0391 15.6836 21.795C15.8789 21.5606 16.1523 21.1992 16.2793 20.9942C16.5723 20.5352 17.1289 19.4121 17.3438 18.8262C17.4316 18.5821 17.5195 18.3282 17.5488 18.2793L17.5879 18.1817L17.8906 18.2696C18.0664 18.3282 18.4082 18.4356 18.6523 18.5137Z"
        fill="currentColor" />
</svg>