<svg width="25" height="32" xmlns="http://www.w3.org/2000/svg">
    <path
        d="M.922 6.76h4.453v16.5H.922V6.76zm13.594 0c-.829 0-1.473.152-1.934.457-.46.304-.863.59-1.207.855V6.76H6.898v16.5h4.477V12.877l.223-1.031c.148-.688.847-1.031 2.097-1.031.75 0 1.301.19 1.653.574.351.383.527.879.527 1.488V23.26h4.71V13.018c0-1.407-.241-2.524-.726-3.352-.484-.828-1.058-1.457-1.722-1.887-.664-.43-1.34-.707-2.028-.832-.687-.125-1.218-.187-1.593-.187zM.875 3.01c0 .625.219 1.156.656 1.594a2.17 2.17 0 0 0 1.594.656 2.17 2.17 0 0 0 1.594-.656 2.17 2.17 0 0 0 .656-1.594 2.17 2.17 0 0 0-.656-1.594A2.17 2.17 0 0 0 3.125.76a2.17 2.17 0 0 0-1.594.656A2.17 2.17 0 0 0 .875 3.01z"
        fill="currentColor" />
</svg>