<svg width="64" height="46" xmlns="http://www.w3.org/2000/svg">
	<path d="M40.571 26.217 60.03 45.36c-.877.41-1.855.639-2.886.639H6.857a6.797 6.797 0 0 1-2.886-.64l19.458-19.143 3.395 3.34c2.909 2.863 7.443 2.863 10.352 0l3.395-3.34zM.701 3.856 20.16 23 .702 42.144A6.908 6.908 0 0 1 0 39.1V6.9c0-1.093.252-2.126.702-3.044zm62.597 0c.45.918.702 1.951.702 3.044v32.2a6.906 6.906 0 0 1-.702 3.044L43.841 23zM57.143 0c1.03 0 2.009.229 2.886.64l-26.05 25.629c-1.131 1.114-2.827 1.114-3.959 0L3.971.639A6.796 6.796 0 0 1 6.857 0h50.286z" fill="currentColor" fill-rule="nonzero" />
</svg>
