<svg width="34" height="34" viewBox="0 0 34 34" fill="none" xmlns="http://www.w3.org/2000/svg">
    <path d="M22.6663 4.91266C24.7654 5.95582 26.208 8.12195 26.208 10.625C26.208 13.1281 24.7654 15.2942 22.6663 16.3373M25.4997 23.7524C27.6409 24.7213 29.5691 26.3004 31.1663 28.3333M2.83301 28.3333C5.59054 24.8237 9.33435 22.6667 13.458 22.6667C17.5817 22.6667 21.3255 24.8237 24.083 28.3333M19.833 10.625C19.833 14.1458 16.9788 17 13.458 17C9.93719 17 7.08301 14.1458 7.08301 10.625C7.08301 7.10418 9.93719 4.25 13.458 4.25C16.9788 4.25 19.833 7.10418 19.833 10.625Z" stroke="white" stroke-width="2" stroke-linecap="round" stroke-linejoin="round"></path>
</svg>
