<svg width="25" height="32" xmlns="http://www.w3.org/2000/svg">
    <path
        d="M21.64 4.533a300.408 300.408 0 0 0-4.265-.21 166.862 166.862 0 0 0-4.453-.083c-1.5-.008-2.992.012-4.477.059a94.33 94.33 0 0 0-4.336.234c-.859.11-1.562.586-2.109 1.43-.547.844-.852 1.672-.914 2.484-.14 1.672-.211 3.106-.211 4.301 0 1.195.07 2.629.21 4.3.063.813.364 1.645.903 2.497.54.851 1.254 1.332 2.145 1.441 1.406.094 2.851.164 4.336.211 1.484.063 2.976.094 4.476.094s2.985-.023 4.453-.07a87.899 87.899 0 0 0 4.243-.235c.843-.14 1.543-.629 2.097-1.465.555-.835.864-1.66.926-2.472a46.1 46.1 0 0 0 0-8.813c-.062-.797-.34-1.601-.832-2.414-.492-.812-1.223-1.242-2.191-1.289zM9.876 17.002V8.4l7.5 4.313-7.5 4.289z"
        fill="currentColor" />
</svg>