<svg version="1.1" viewBox="0 0 124 93" xmlns="http://www.w3.org/2000/svg">
 <g transform="translate(0,10)">
  <path d="m27.303 0c-7.59 0.026-13.777 6.213-13.803 13.803-5e-6 0.0027-5e-6 0.0053 0 8e-3v46.379c-5e-6 0.0027-5e-6 0.0053 0 8e-3 0.026 7.59 6.213 13.777 13.803 13.803 0.0027 5e-6 0.0053 5e-6 8e-3 0h70.379c0.0027 5e-6 0.0053 5e-6 8e-3 0 7.59-0.026 13.777-6.214 13.803-13.803 1e-5 -0.0027 1e-5 -0.0053 0-8e-3v-46.387c-0.026-7.59-6.214-13.777-13.803-13.803-0.0027-5.3333e-6 -0.0053-5.3333e-6 -8e-3 0h-6.69c-1.1046 0-2 0.89543-2 2s0.89543 2 2 2h6.684c5.4203 0.00221 9.8138 4.3957 9.816 9.816v46.367c-2e-3 5.4207-4.3953 9.8148-9.816 9.817h-70.367c-5.4207-0.0022-9.8143-4.3963-9.816-9.817v-46.367c0.002207-5.4203 4.3957-9.8138 9.816-9.816h43.683c1.1046 0 2-0.89543 2-2s-0.89543-2-2-2h-43.69c-0.0023-4.0833e-6 -0.0047-4.0833e-6 -7e-3 0z"/>
 </g>
</svg>
