<svg xmlns="http://www.w3.org/2000/svg" viewBox="0 0 92.35 122.88">
    <path d="M3.39 113.07 15 111l5.73 10.25c4.15 5.15 6.79-3.31 8-6.26L39.78 94c-2.57-.89-5.66-3.47-8.85-6.35-6.35.13-12.26-1-16.62-6.52L1.5 105.85l-1.12 2.38c-.87 3.08-.41 5.12 3 4.84zM46.77 27l3.79 8.88 9.62.86a.78.78 0 0 1 .7.83.81.81 0 0 1-.26.52l-7.27 6.35 2.15 9.41a.78.78 0 0 1-1.18.82l-8.26-4.97-8.29 4.95a.77.77 0 0 1-1.05-.26.73.73 0 0 1-.09-.57l2.15-9.41-7.27-6.35a.77.77 0 0 1-.08-1.06.79.79 0 0 1 .54-.26l9.59-.86L45.35 27a.77.77 0 0 1 1-.41.72.72 0 0 1 .41.41zm-.59-27a9.26 9.26 0 0 1 5.61 1.76c2.21 1.4 4.66 4.15 7.71 5.89 4.28 2.45 12.22-.93 16.29 5.11 2.37 3.52 2.48 6.28 2.66 9a15.84 15.84 0 0 0 3.72 9.64c5 6.59 6 11 3.45 15.56-1.75 3.11-5.44 4.85-6.29 6.82-1.82 4.2.19 7.37-2.3 12.27a13.05 13.05 0 0 1-7.93 6.78c-3 1-6-.43-8.39.58-4.21 1.78-7.32 5.89-10.71 6.93a13 13 0 0 1-7.73 0c-3.35-1-6.46-5.15-10.66-6.92-2.4-1-5.4.39-8.39-.58a13 13 0 0 1-7.94-6.78c-2.45-4.9-.44-8.06-2.28-12.27-.86-2-4.55-3.71-6.3-6.82-2.57-4.58-1.53-9 3.46-15.56 3-4 3.53-6.7 3.72-9.64.17-2.73.28-5.49 2.65-9 4.07-6 12-2.66 16.3-5.11 3-1.74 5.51-4.49 7.71-5.88A9.24 9.24 0 0 1 46.18 0zm-.12 16.93a24.15 24.15 0 1 1-24.15 24.16 24.15 24.15 0 0 1 24.15-24.15zM89 113.07 77.41 111l-5.73 10.25c-4.16 5.15-6.8-3.31-8-6.26L52.57 94c2.57-.89 5.67-3.47 8.85-6.35 6.35.13 12.27-1 16.62-6.52l12.82 24.76 1.14 2.34c.87 3.08.41 5.12-3 4.84z" style="fill-rule:evenodd"/>
</svg>
