<svg xmlns="http://www.w3.org/2000/svg" viewBox="0 0 122.88 92.57">
<path d="M14 0a6.4 6.4 0 0 1 6.38 6.38v10.44h13.56a9.86 9.86 0 0 1 19.24 0h6.59a9.86 9.86 0 0 1 19.24 0h23.5V6.38A6.4 6.4 0 0 1 108.89 0a6.4 6.4 0 0 1 6.38 6.38V81.9h5.11a2.5 2.5 0 0 1 2.5 2.49v5.68a2.5 2.5 0 0 1-2.5 2.5H2.5a2.5 2.5 0 0 1-2.5-2.5v-5.68a2.5 2.5 0 0 1 2.5-2.49h5.11V6.38A6.4 6.4 0 0 1 14 0zm6.38 21.18v19.61H55a9.87 9.87 0 0 1 19.24 0h6.59a9.87 9.87 0 0 1 19.24 0h2.42V21.18H79a9.87 9.87 0 0 1-19.24 0h-6.58a9.87 9.87 0 0 1-19.24 0zm52.87 35.9a9.86 9.86 0 0 1 9.62 7.68h19.65V45.15h-2.42a9.87 9.87 0 0 1-19.24 0h-6.6a9.87 9.87 0 0 1-19.24 0H20.37v19.61H37.8a9.86 9.86 0 0 1 19.23 0h6.6a9.86 9.86 0 0 1 9.61-7.68zm9.62 12a9.86 9.86 0 0 1-19.23 0H57a9.86 9.86 0 0 1-19.23 0h-17.4V81.9h82.14V69.12z" style="fill-rule:evenodd"/>
</svg>
