<svg width="285" height="314" fill="none" xmlns="http://www.w3.org/2000/svg"><g opacity=".36" fill="#009FE3" clip-path="url(#a)"><path d="M16.736 7.55a3.475 3.475 0 1 0 0-6.95 3.475 3.475 0 0 0 0 6.95zM47.99 7.55a3.475 3.475 0 1 0 0-6.95 3.475 3.475 0 0 0 0 6.95zM82.719 4.075a3.484 3.484 0 0 1-3.475 3.476 3.484 3.484 0 0 1-3.475-3.476A3.484 3.484 0 0 1 79.244.6a3.484 3.484 0 0 1 3.475 3.475zM113.973 4.075a3.484 3.484 0 0 1-3.476 3.476 3.484 3.484 0 0 1-3.475-3.476A3.484 3.484 0 0 1 110.497.6a3.484 3.484 0 0 1 3.476 3.475zM141.759 7.55a3.475 3.475 0 1 0 0-6.95 3.475 3.475 0 0 0 0 6.95zM173.02 7.55a3.475 3.475 0 1 0 0-6.95 3.476 3.476 0 0 0 0 6.95zM204.274 7.55a3.475 3.475 0 1 0 0-6.95 3.475 3.475 0 0 0 0 6.95zM235.527 7.55a3.475 3.475 0 1 0 0-6.95 3.475 3.475 0 0 0 0 6.95zM266.781 7.55a3.475 3.475 0 1 0 0-6.95 3.475 3.475 0 0 0 0 6.95zM16.736 35.332a3.475 3.475 0 1 0 0-6.95 3.475 3.475 0 0 0 0 6.95zM47.99 35.332a3.475 3.475 0 1 0 0-6.95 3.475 3.475 0 0 0 0 6.95zM82.719 31.857a3.484 3.484 0 0 1-3.475 3.475 3.484 3.484 0 0 1-3.475-3.475 3.484 3.484 0 0 1 3.475-3.476 3.484 3.484 0 0 1 3.475 3.476zM113.973 31.857a3.484 3.484 0 0 1-3.476 3.475 3.484 3.484 0 0 1-3.475-3.475 3.484 3.484 0 0 1 3.475-3.476 3.484 3.484 0 0 1 3.476 3.476zM141.759 35.332a3.475 3.475 0 1 0 0-6.95 3.475 3.475 0 0 0 0 6.95zM173.02 35.332a3.475 3.475 0 1 0 0-6.95 3.476 3.476 0 0 0 0 6.95zM204.274 35.332a3.475 3.475 0 1 0 0-6.95 3.475 3.475 0 0 0 0 6.95zM235.527 35.332a3.475 3.475 0 1 0 0-6.95 3.475 3.475 0 0 0 0 6.95zM266.781 35.332a3.475 3.475 0 1 0 0-6.95 3.475 3.475 0 0 0 0 6.95zM16.736 63.113a3.475 3.475 0 1 0 0-6.95 3.475 3.475 0 0 0 0 6.95zM47.99 63.113a3.475 3.475 0 1 0 0-6.95 3.475 3.475 0 0 0 0 6.95zM82.719 59.637a3.484 3.484 0 0 1-3.475 3.476 3.484 3.484 0 0 1-3.475-3.476 3.484 3.484 0 0 1 3.475-3.475 3.484 3.484 0 0 1 3.475 3.475zM113.973 59.637a3.484 3.484 0 0 1-3.476 3.476 3.484 3.484 0 0 1-3.475-3.476 3.484 3.484 0 0 1 3.475-3.475 3.484 3.484 0 0 1 3.476 3.475zM141.759 63.113a3.475 3.475 0 1 0 0-6.95 3.475 3.475 0 0 0 0 6.95zM173.02 63.113a3.475 3.475 0 1 0 0-6.95 3.476 3.476 0 0 0 0 6.95zM204.274 63.113a3.475 3.475 0 1 0 0-6.95 3.475 3.475 0 0 0 0 6.95zM235.527 63.113a3.475 3.475 0 1 0 0-6.95 3.475 3.475 0 0 0 0 6.95zM266.781 63.113a3.475 3.475 0 1 0 0-6.95 3.475 3.475 0 0 0 0 6.95zM20.212 87.419a3.484 3.484 0 0 1-3.476 3.475 3.484 3.484 0 0 1-3.475-3.475 3.484 3.484 0 0 1 3.476-3.476 3.484 3.484 0 0 1 3.475 3.476zM51.465 87.419a3.484 3.484 0 0 1-3.475 3.475 3.484 3.484 0 0 1-3.475-3.475 3.484 3.484 0 0 1 3.475-3.476 3.484 3.484 0 0 1 3.475 3.476zM82.719 87.419a3.484 3.484 0 0 1-3.475 3.475 3.484 3.484 0 0 1-3.475-3.475 3.484 3.484 0 0 1 3.475-3.476 3.484 3.484 0 0 1 3.475 3.476zM113.973 87.419a3.484 3.484 0 0 1-3.476 3.475 3.484 3.484 0 0 1-3.475-3.475 3.484 3.484 0 0 1 3.475-3.476 3.484 3.484 0 0 1 3.476 3.476zM145.234 87.419a3.484 3.484 0 0 1-3.475 3.475 3.484 3.484 0 0 1-3.475-3.475 3.484 3.484 0 0 1 3.475-3.476 3.484 3.484 0 0 1 3.475 3.476zM176.495 87.419a3.484 3.484 0 0 1-3.475 3.475 3.484 3.484 0 0 1-3.476-3.475 3.484 3.484 0 0 1 3.476-3.476 3.484 3.484 0 0 1 3.475 3.476zM207.749 87.419a3.484 3.484 0 0 1-3.475 3.475 3.484 3.484 0 0 1-3.476-3.475 3.484 3.484 0 0 1 3.476-3.476 3.484 3.484 0 0 1 3.475 3.476zM239.002 87.419a3.484 3.484 0 0 1-3.475 3.475 3.484 3.484 0 0 1-3.475-3.475 3.484 3.484 0 0 1 3.475-3.476 3.484 3.484 0 0 1 3.475 3.476zM270.256 87.419a3.484 3.484 0 0 1-3.475 3.475 3.484 3.484 0 0 1-3.475-3.475 3.484 3.484 0 0 1 3.475-3.476 3.484 3.484 0 0 1 3.475 3.476zM20.212 115.203a3.485 3.485 0 0 1-3.476 3.476 3.485 3.485 0 0 1-3.475-3.476 3.484 3.484 0 0 1 3.476-3.475 3.484 3.484 0 0 1 3.475 3.475zM51.465 115.203a3.485 3.485 0 0 1-3.475 3.476 3.485 3.485 0 0 1-3.475-3.476 3.484 3.484 0 0 1 3.475-3.475 3.484 3.484 0 0 1 3.475 3.475zM82.719 115.203a3.485 3.485 0 0 1-3.475 3.476 3.485 3.485 0 0 1-3.475-3.476 3.484 3.484 0 0 1 3.475-3.475 3.484 3.484 0 0 1 3.475 3.475zM113.973 115.203a3.485 3.485 0 0 1-3.476 3.476 3.485 3.485 0 0 1-3.475-3.476 3.484 3.484 0 0 1 3.475-3.475 3.484 3.484 0 0 1 3.476 3.475zM145.234 115.203a3.485 3.485 0 0 1-3.475 3.476 3.484 3.484 0 0 1-3.475-3.476 3.484 3.484 0 0 1 3.475-3.475 3.484 3.484 0 0 1 3.475 3.475zM176.495 115.203a3.484 3.484 0 0 1-3.475 3.476 3.485 3.485 0 0 1-3.476-3.476 3.484 3.484 0 0 1 3.476-3.475 3.484 3.484 0 0 1 3.475 3.475zM207.749 115.203a3.485 3.485 0 0 1-3.475 3.476 3.485 3.485 0 0 1-3.476-3.476 3.484 3.484 0 0 1 3.476-3.475 3.484 3.484 0 0 1 3.475 3.475zM239.002 115.203a3.485 3.485 0 0 1-3.475 3.476 3.485 3.485 0 0 1-3.475-3.476 3.484 3.484 0 0 1 3.475-3.475 3.484 3.484 0 0 1 3.475 3.475zM270.256 115.203a3.485 3.485 0 0 1-3.475 3.476 3.485 3.485 0 0 1-3.475-3.476 3.484 3.484 0 0 1 3.475-3.475 3.484 3.484 0 0 1 3.475 3.475zM20.212 142.981a3.484 3.484 0 0 1-3.476 3.475 3.484 3.484 0 0 1-3.475-3.475 3.484 3.484 0 0 1 3.476-3.476 3.484 3.484 0 0 1 3.475 3.476zM51.465 142.981a3.484 3.484 0 0 1-3.475 3.475 3.484 3.484 0 0 1-3.475-3.475 3.484 3.484 0 0 1 3.475-3.476 3.484 3.484 0 0 1 3.475 3.476zM82.719 142.981a3.484 3.484 0 0 1-3.475 3.475 3.484 3.484 0 0 1-3.475-3.475 3.484 3.484 0 0 1 3.475-3.476 3.484 3.484 0 0 1 3.475 3.476zM113.973 142.981a3.484 3.484 0 0 1-3.476 3.475 3.484 3.484 0 0 1-3.475-3.475 3.484 3.484 0 0 1 3.475-3.476 3.485 3.485 0 0 1 3.476 3.476zM145.234 142.981a3.484 3.484 0 0 1-3.475 3.475 3.484 3.484 0 0 1-3.475-3.475 3.484 3.484 0 0 1 3.475-3.476 3.484 3.484 0 0 1 3.475 3.476zM176.495 142.981a3.484 3.484 0 0 1-3.475 3.475 3.484 3.484 0 0 1-3.476-3.475 3.485 3.485 0 0 1 3.476-3.476 3.484 3.484 0 0 1 3.475 3.476zM207.749 142.981a3.484 3.484 0 0 1-3.475 3.475 3.484 3.484 0 0 1-3.476-3.475 3.485 3.485 0 0 1 3.476-3.476 3.484 3.484 0 0 1 3.475 3.476zM239.002 142.981a3.484 3.484 0 0 1-3.475 3.475 3.484 3.484 0 0 1-3.475-3.475 3.484 3.484 0 0 1 3.475-3.476 3.484 3.484 0 0 1 3.475 3.476zM270.256 142.981a3.484 3.484 0 0 1-3.475 3.475 3.484 3.484 0 0 1-3.475-3.475 3.484 3.484 0 0 1 3.475-3.476 3.484 3.484 0 0 1 3.475 3.476zM16.736 174.237a3.476 3.476 0 1 0-.001-6.952 3.476 3.476 0 0 0 .002 6.952zM47.99 174.237a3.476 3.476 0 1 0-.001-6.952 3.476 3.476 0 0 0 .001 6.952zM82.719 170.761a3.484 3.484 0 0 1-3.475 3.476 3.484 3.484 0 0 1-3.475-3.476 3.484 3.484 0 0 1 3.475-3.475c1.912.021 3.475 1.563 3.475 3.475zM113.973 170.761a3.485 3.485 0 0 1-3.476 3.476 3.484 3.484 0 0 1-3.475-3.476 3.484 3.484 0 0 1 3.475-3.475c1.913.021 3.476 1.563 3.476 3.475zM141.759 174.237a3.476 3.476 0 1 0-.002-6.952 3.476 3.476 0 0 0 .002 6.952zM173.02 174.237a3.475 3.475 0 1 0 0-6.95 3.475 3.475 0 0 0 0 6.95zM204.274 174.237a3.476 3.476 0 1 0-.002-6.952 3.476 3.476 0 0 0 .002 6.952zM235.527 174.237a3.476 3.476 0 1 0-.002-6.952 3.476 3.476 0 0 0 .002 6.952zM266.781 174.237a3.476 3.476 0 1 0-.002-6.952 3.476 3.476 0 0 0 .002 6.952zM20.212 198.565a3.484 3.484 0 0 1-3.476 3.476 3.484 3.484 0 0 1-3.475-3.476 3.484 3.484 0 0 1 3.476-3.475 3.471 3.471 0 0 1 3.475 3.475zM51.465 198.565a3.484 3.484 0 0 1-3.475 3.476 3.484 3.484 0 0 1-3.475-3.476 3.484 3.484 0 0 1 3.475-3.475 3.471 3.471 0 0 1 3.475 3.475zM82.719 198.565a3.484 3.484 0 0 1-3.475 3.476 3.484 3.484 0 0 1-3.475-3.476 3.484 3.484 0 0 1 3.475-3.475 3.471 3.471 0 0 1 3.475 3.475zM113.973 198.565a3.485 3.485 0 0 1-3.476 3.476 3.484 3.484 0 0 1-3.475-3.476 3.484 3.484 0 0 1 3.475-3.475 3.472 3.472 0 0 1 3.476 3.475zM145.234 198.565a3.484 3.484 0 0 1-3.475 3.476 3.484 3.484 0 0 1-3.475-3.476 3.484 3.484 0 0 1 3.475-3.475 3.471 3.471 0 0 1 3.475 3.475zM176.495 198.565a3.484 3.484 0 0 1-3.475 3.476 3.485 3.485 0 0 1-3.476-3.476 3.484 3.484 0 0 1 3.476-3.475 3.47 3.47 0 0 1 3.475 3.475zM207.749 198.565a3.484 3.484 0 0 1-3.475 3.476 3.485 3.485 0 0 1-3.476-3.476 3.484 3.484 0 0 1 3.476-3.475 3.471 3.471 0 0 1 3.475 3.475zM239.002 198.565a3.484 3.484 0 0 1-3.475 3.476 3.484 3.484 0 0 1-3.475-3.476 3.484 3.484 0 0 1 3.475-3.475 3.471 3.471 0 0 1 3.475 3.475zM270.256 198.565a3.484 3.484 0 0 1-3.475 3.476 3.484 3.484 0 0 1-3.475-3.476 3.484 3.484 0 0 1 3.475-3.475 3.471 3.471 0 0 1 3.475 3.475zM20.212 226.346a3.484 3.484 0 0 1-3.476 3.475 3.484 3.484 0 0 1-3.475-3.475 3.484 3.484 0 0 1 3.476-3.475 3.47 3.47 0 0 1 3.475 3.475zM51.465 226.346a3.484 3.484 0 0 1-3.475 3.475 3.484 3.484 0 0 1-3.475-3.475 3.484 3.484 0 0 1 3.475-3.475 3.47 3.47 0 0 1 3.475 3.475zM82.719 226.346a3.484 3.484 0 0 1-3.475 3.475 3.484 3.484 0 0 1-3.475-3.475 3.484 3.484 0 0 1 3.475-3.475 3.47 3.47 0 0 1 3.475 3.475zM113.973 226.346a3.484 3.484 0 0 1-3.476 3.475 3.484 3.484 0 0 1-3.475-3.475 3.484 3.484 0 0 1 3.475-3.475 3.471 3.471 0 0 1 3.476 3.475zM145.234 226.346a3.484 3.484 0 0 1-3.475 3.475 3.483 3.483 0 0 1-3.475-3.475 3.484 3.484 0 0 1 3.475-3.475 3.47 3.47 0 0 1 3.475 3.475zM176.495 226.346a3.483 3.483 0 0 1-3.475 3.475 3.484 3.484 0 0 1-3.476-3.475 3.484 3.484 0 0 1 3.476-3.475 3.47 3.47 0 0 1 3.475 3.475zM207.749 226.346a3.484 3.484 0 0 1-3.475 3.475 3.484 3.484 0 0 1-3.476-3.475 3.484 3.484 0 0 1 3.476-3.475 3.47 3.47 0 0 1 3.475 3.475zM239.002 226.346a3.484 3.484 0 0 1-3.475 3.475 3.484 3.484 0 0 1-3.475-3.475 3.484 3.484 0 0 1 3.475-3.475 3.47 3.47 0 0 1 3.475 3.475zM270.256 226.346a3.484 3.484 0 0 1-3.475 3.475 3.484 3.484 0 0 1-3.475-3.475 3.484 3.484 0 0 1 3.475-3.475 3.47 3.47 0 0 1 3.475 3.475zM20.212 254.127a3.484 3.484 0 0 1-3.476 3.476 3.484 3.484 0 0 1-3.475-3.476 3.484 3.484 0 0 1 3.476-3.475 3.484 3.484 0 0 1 3.475 3.475zM51.465 254.127a3.484 3.484 0 0 1-3.475 3.476 3.484 3.484 0 0 1-3.475-3.476 3.484 3.484 0 0 1 3.475-3.475 3.484 3.484 0 0 1 3.475 3.475zM82.719 254.127a3.484 3.484 0 0 1-3.475 3.476 3.484 3.484 0 0 1-3.475-3.476 3.484 3.484 0 0 1 3.475-3.475 3.484 3.484 0 0 1 3.475 3.475zM113.973 254.127a3.485 3.485 0 0 1-3.476 3.476 3.484 3.484 0 0 1-3.475-3.476 3.484 3.484 0 0 1 3.475-3.475 3.484 3.484 0 0 1 3.476 3.475zM145.234 254.127a3.484 3.484 0 0 1-3.475 3.476 3.484 3.484 0 0 1-3.475-3.476 3.484 3.484 0 0 1 3.475-3.475 3.484 3.484 0 0 1 3.475 3.475zM176.495 254.127a3.484 3.484 0 0 1-3.475 3.476 3.485 3.485 0 0 1-3.476-3.476 3.484 3.484 0 0 1 3.476-3.475 3.484 3.484 0 0 1 3.475 3.475zM207.749 254.127a3.484 3.484 0 0 1-3.475 3.476 3.485 3.485 0 0 1-3.476-3.476 3.484 3.484 0 0 1 3.476-3.475 3.484 3.484 0 0 1 3.475 3.475zM239.002 254.127a3.484 3.484 0 0 1-3.475 3.476 3.484 3.484 0 0 1-3.475-3.476 3.484 3.484 0 0 1 3.475-3.475 3.484 3.484 0 0 1 3.475 3.475zM270.256 254.127a3.484 3.484 0 0 1-3.475 3.476 3.484 3.484 0 0 1-3.475-3.476 3.484 3.484 0 0 1 3.475-3.475 3.484 3.484 0 0 1 3.475 3.475zM16.736 285.383a3.475 3.475 0 1 0 .002-6.95 3.475 3.475 0 0 0-.002 6.95zM47.99 285.383a3.475 3.475 0 1 0 .001-6.95 3.475 3.475 0 0 0 0 6.95zM82.719 281.908a3.484 3.484 0 0 1-3.475 3.475 3.484 3.484 0 0 1-3.475-3.475 3.484 3.484 0 0 1 3.475-3.475 3.484 3.484 0 0 1 3.475 3.475zM113.973 281.908a3.484 3.484 0 0 1-3.476 3.475 3.484 3.484 0 0 1-3.475-3.475 3.484 3.484 0 0 1 3.475-3.475 3.484 3.484 0 0 1 3.476 3.475zM141.759 285.383a3.475 3.475 0 1 0 0-6.95 3.475 3.475 0 0 0 0 6.95zM173.02 285.383a3.475 3.475 0 1 0-3.476-3.475 3.475 3.475 0 0 0 3.476 3.475zM204.274 285.383a3.475 3.475 0 1 0 0-6.95 3.476 3.476 0 0 0 0 6.95zM235.527 285.383a3.475 3.475 0 1 0 0-6.95 3.475 3.475 0 0 0 0 6.95zM266.781 285.383a3.475 3.475 0 1 0 0-6.95 3.475 3.475 0 0 0 0 6.95zM20.212 309.689a3.484 3.484 0 0 1-3.476 3.476 3.484 3.484 0 0 1-3.475-3.476 3.484 3.484 0 0 1 3.476-3.475 3.484 3.484 0 0 1 3.475 3.475zM51.465 309.689a3.484 3.484 0 0 1-3.475 3.476 3.484 3.484 0 0 1-3.475-3.476 3.484 3.484 0 0 1 3.475-3.475 3.484 3.484 0 0 1 3.475 3.475zM82.719 309.689a3.484 3.484 0 0 1-3.475 3.476 3.484 3.484 0 0 1-3.475-3.476 3.484 3.484 0 0 1 3.475-3.475 3.484 3.484 0 0 1 3.475 3.475zM113.973 309.689a3.485 3.485 0 0 1-3.476 3.476 3.484 3.484 0 0 1-3.475-3.476 3.484 3.484 0 0 1 3.475-3.475 3.484 3.484 0 0 1 3.476 3.475zM145.234 309.689a3.484 3.484 0 0 1-3.475 3.476 3.484 3.484 0 0 1-3.475-3.476 3.484 3.484 0 0 1 3.475-3.475 3.484 3.484 0 0 1 3.475 3.475zM176.495 309.689a3.484 3.484 0 0 1-3.475 3.476 3.485 3.485 0 0 1-3.476-3.476 3.484 3.484 0 0 1 3.476-3.475 3.484 3.484 0 0 1 3.475 3.475zM207.749 309.689a3.484 3.484 0 0 1-3.475 3.476 3.485 3.485 0 0 1-3.476-3.476 3.484 3.484 0 0 1 3.476-3.475 3.484 3.484 0 0 1 3.475 3.475zM239.002 309.689a3.484 3.484 0 0 1-3.475 3.476 3.484 3.484 0 0 1-3.475-3.476 3.484 3.484 0 0 1 3.475-3.475 3.484 3.484 0 0 1 3.475 3.475zM270.256 309.689a3.484 3.484 0 0 1-3.475 3.476 3.484 3.484 0 0 1-3.475-3.476 3.484 3.484 0 0 1 3.475-3.475 3.484 3.484 0 0 1 3.475 3.475z"/></g><defs><clipPath id="a"><path fill="#fff" transform="translate(-18 .6)" d="M0 0h319.998v313.19H0z"/></clipPath></defs></svg>