<svg xmlns="http://www.w3.org/2000/svg" viewBox="0 0 123.52 113.54" xml:space="preserve">
<path d="M82.33 16.91c-1.07.88-2.65.74-3.54-.34s-.74-2.65.34-3.54L94.2.58c1.07-.88 2.65-.74 3.54.33a2.51 2.51 0 0 1-.34 3.54L82.33 16.91zM9.12 60.78c-1.66.49-2.88 1.57-3.69 3-.93 1.65-1.35 3.78-1.32 6.06.01.98.11 1.99.28 3.01a21.821 21.821 0 0 0 1.95 6.03c.46.92.98 1.8 1.55 2.6 1.4 1.95 3.14 3.5 5.15 4.28 1.75.69 3.72.79 5.84.06l.04-.01c.24-.08.48-.11.72-.09.17.01.34.04.51.09l.05-.02c.57-.19 1.16-.37 1.74-.55l1.59-.49c.58-.17 1.13-.33 1.65-.48.51-.15 1.03-.29 1.56-.43.55-.15 1.1-.06 1.56.2l.05.03c.43.26.76.68.91 1.21.03.09.04.16.05.24.14.63.31 1.28.43 1.91 1.09 4.88 2.15 9.58 3.56 13.39.12.38.27.75.41 1.13.43 1.2.88 2.44 1.38 3.57.48 1.1.99 2.08 1.57 2.8v.01c.43.54.93.88 1.52.91.65.03 1.46-.28 2.48-1.07.44-.41.84-.76 1.25-1.11l.09-.08c1.2-1.04 2.4-2.07 2.92-3.48-.08-.06-.17-.12-.27-.17-.23-.13-.52-.26-.81-.38l-.03-.01c-1.07-.45-2.13-.91-2.9-1.87-.78-.97-1.2-2.38-.91-4.68.01-.14.03-.26.05-.38.02-.14.04-.28.05-.42.13-1.04.2-1.58.16-1.73v-.02c-.03-.04-.24-.19-.66-.58-.12-.11-.25-.22-.36-.34a5.222 5.222 0 0 1-1.34-2.03c-.31-.84-.43-1.76-.42-2.72.01-.94.15-1.92.36-2.85.26-1.13.63-2.21 1-3.1l.02-.03a2.045 2.045 0 0 1 1.59-1.21h.02c7.57-1.05 13.68-.91 18.81-.25 4.63.6 8.44 1.61 11.83 2.57-2.59-2.95-4.97-6.42-7.12-10.2-2.77-4.88-5.15-10.29-7.07-15.77-1.94-5.54-3.41-11.16-4.33-16.4-.77-4.4-1.16-8.54-1.11-12.13-2.89 4.15-6.78 9.19-12.5 14.27-6.53 5.79-15.45 11.63-28.01 16.25-.13.04-.26.09-.39.13l-.06.1s.01-.01-.22.35l-.02.03a2.071 2.071 0 0 1-1.13.85h-.03zm57.05 7.74c1.88 3.61 3.96 6.97 6.21 9.88 2.14 2.76 4.44 5.13 6.86 6.92l.25.02c.12.01.24.01.34 0h.04c.19-.01.38-.04.58-.1.19-.06.39-.15.6-.27.51-.52.93-1.2 1.27-2 .38-.88.66-1.92.84-3.08.55-3.43.29-7.82-.56-12.67-.93-5.3-2.58-11.13-4.66-16.84-2.04-5.61-4.5-11.09-7.12-15.83-2.49-4.52-5.12-8.36-7.66-10.99-.95-.99-1.87-1.78-2.74-2.35-.81-.53-1.56-.87-2.25-.98h-.02c-.16-.03-.29-.04-.39-.05-.04 0 0-.03-.02-.02-.01 0-.01.02-.06.06-.09.08-.22.2-.37.35-.13.12-.26.27-.38.41l-.04.08c-1.16 2.4-1.56 6.2-1.31 10.83.26 4.7 1.2 10.23 2.73 15.97 4.35-1 7.75-.08 10.09 1.87 1.37 1.14 2.36 2.62 2.97 4.27.6 1.64.82 3.45.64 5.26-.34 3.56-2.25 7.08-5.84 9.26zm12.72 20.89a2.011 2.011 0 0 1-1.16-.17c-.27-.05-.54-.1-.8-.16-1.89-.39-3.73-.92-5.71-1.48l-.13-.04c-6.79-1.93-15.28-4.35-28.88-2.67-.18.52-.33 1.08-.45 1.63-.12.58-.19 1.16-.2 1.69 0 .42.04.81.13 1.13.07.24.18.44.33.58l.24.22c1.11 1.01 1.65 1.51 1.96 2.65.25.92.14 1.77-.08 3.45-.03.23-.05.46-.09.69-.1.81.03 1.28.27 1.57.25.3.68.49 1.12.67l.05.02c1.4.6 2.8 1.21 3.52 3.2.08.18.13.38.15.58.02.2.02.4-.02.61v.01c-.31 1.61-.97 2.84-1.8 3.89-.81 1.03-1.77 1.85-2.72 2.67l-.22.19c-.33.28-.65.56-.96.86l-.16.14c-2.17 1.73-4.02 2.35-5.65 2.18-1.65-.17-3.02-1.15-4.18-2.61-.8-1-1.46-2.23-2.05-3.54-.58-1.3-1.08-2.67-1.56-4-.13-.37-.27-.74-.41-1.11-1.48-3.99-2.57-8.84-3.69-13.85-.36.1-.72.22-1.08.32-.56.17-1.11.33-1.64.5-.54.17-1.07.34-1.59.5l-.03.01c-.08.02-.14.05-.19.07l-.03.01c-.38.16-.66.27-.98.3-.29.03-.56 0-.88-.12-2.89.8-5.56.56-7.94-.4-2.7-1.1-5.02-3.15-6.86-5.72l-.02-.02c-.69-.99-1.31-2.05-1.86-3.17-.56-1.13-1.03-2.31-1.42-3.51A25.124 25.124 0 0 1 0 69.88c-.03-3.02.56-5.88 1.87-8.19C3.05 59.62 4.81 58 7.2 57.1c.09-.14.16-.26.24-.36.13-.17.27-.32.46-.48l.04-.03c.2-.17.39-.28.61-.39.2-.09.43-.18.74-.29l.28-.1c12.71-4.68 21.5-10.66 27.81-16.51 6.31-5.85 10.15-11.57 12.92-15.73l.06-.09c1.55-2.32 2.8-4.17 4.05-5.42.32-.32.6-.58.9-.8.31-.23.63-.41 1-.55.39-.14.77-.22 1.18-.24.4-.02.83.02 1.33.1 1.18.19 2.38.68 3.59 1.44 1.23.77 2.47 1.82 3.7 3.1 2.74 2.84 5.56 6.94 8.21 11.73 2.76 4.98 5.34 10.7 7.46 16.55 2.18 6 3.9 12.14 4.87 17.77.89 5.19 1.15 9.96.53 13.77-.26 1.6-.67 3.06-1.24 4.32-.56 1.24-1.29 2.31-2.19 3.18-.04.04-.09.08-.13.12-.06.04-.12.09-.18.13-.59.39-1.16.67-1.73.85-.58.19-1.16.28-1.74.31h-.04c-.2 0-.39 0-.57-.01-.14-.03-.31-.04-.47-.06zm24.61-10.93a2.492 2.492 0 0 1-2.6-2.41 2.492 2.492 0 0 1 2.41-2.6l17.6-.66a2.531 2.531 0 0 1 2.6 2.41 2.514 2.514 0 0 1-2.41 2.61l-17.6.65zm-.5-17.1c-1.38.18-2.64-.79-2.82-2.15-.18-1.38.79-2.64 2.15-2.82l16.26-2.16c1.38-.18 2.64.79 2.82 2.15.18 1.38-.79 2.64-2.15 2.82L103 61.38zm-3.42-15.7c-1.31.45-2.75-.24-3.2-1.55a2.51 2.51 0 0 1 1.55-3.2l16.67-5.79c1.31-.47 2.75.24 3.2 1.55a2.51 2.51 0 0 1-1.55 3.2l-16.67 5.79zm-7.86-15.11c-1.2.69-2.74.27-3.42-.94a2.5 2.5 0 0 1 .94-3.42l15.8-9.06c1.2-.69 2.74-.27 3.42.94a2.5 2.5 0 0 1-.94 3.42l-15.8 9.06z" style="fill-rule:evenodd;clip-rule:evenodd"/>
</svg>
