<?xml version="1.0" standalone="no"?>
<!DOCTYPE svg PUBLIC "-//W3C//DTD SVG 20010904//EN"
 "http://www.w3.org/TR/2001/REC-SVG-20010904/DTD/svg10.dtd">
<svg version="1.0" xmlns="http://www.w3.org/2000/svg"
 width="512.000000pt" height="512.000000pt" viewBox="0 0 512.000000 512.000000"
 preserveAspectRatio="xMidYMid meet">
<metadata>
Created by potrace 1.14, written by Peter Selinger 2001-2017
</metadata>
<g transform="translate(0.000000,512.000000) scale(0.100000,-0.100000)"
fill="#000000" stroke="none">
<path d="M0 2560 l0 -2560 2560 0 2560 0 0 2560 0 2560 -2560 0 -2560 0 0
-2560z m1211 2188 c109 -122 349 -413 446 -543 33 -44 144 -205 247 -357 l187
-278 37 25 c50 33 152 70 245 89 97 20 306 21 418 1 358 -62 876 -381 1284
-789 248 -249 421 -487 561 -771 94 -192 151 -353 191 -542 25 -118 27 -146
27 -343 0 -209 -1 -218 -32 -335 -39 -145 -116 -307 -201 -421 -63 -85 -204
-224 -226 -224 -12 0 -26 49 -51 175 -5 28 -17 35 -152 94 -209 92 -546 261
-762 383 -390 221 -683 425 -926 647 -101 92 -137 109 -195 92 -47 -14 -72
-48 -111 -149 -126 -329 -372 -616 -656 -764 -215 -113 -391 -157 -659 -165
-225 -7 -393 12 -570 63 l-53 15 2 1212 3 1212 75 17 c314 73 717 25 1005
-119 90 -45 221 -131 274 -178 37 -34 44 -36 69 -26 l27 11 1 133 c1 196 39
322 136 453 l45 60 -24 30 c-13 16 -119 171 -235 344 -116 173 -237 349 -268
391 -113 151 -307 377 -449 522 l-144 147 166 0 166 0 102 -112z m-876 -79
c219 -139 394 -317 708 -720 170 -218 281 -352 371 -447 l70 -73 -75 40 c-266
142 -681 197 -1096 145 l-53 -6 0 530 c0 292 3 537 6 546 8 22 13 21 69 -15z"/>
<path d="M2760 3367 c-115 -33 -194 -96 -241 -192 -27 -56 -31 -73 -31 -147 1
-192 102 -393 301 -601 337 -351 833 -572 1160 -517 87 14 199 68 237 113 156
185 40 479 -330 835 -259 249 -486 399 -721 478 -94 31 -126 37 -220 40 -71 3
-126 -1 -155 -9z m53 -261 c45 -19 60 -39 105 -144 49 -112 108 -202 205 -313
179 -205 484 -410 714 -481 77 -23 94 -38 74 -62 -29 -35 -183 -25 -326 22
-107 35 -276 122 -405 207 -257 172 -498 475 -517 650 -5 45 -2 54 22 83 15
17 41 36 58 41 18 5 33 10 35 10 1 1 17 -5 35 -13z"/>
</g>
</svg>
